<?xml version="1.0" standalone="no"?>
<!DOCTYPE svg PUBLIC "-//W3C//DTD SVG 20010904//EN"
 "http://www.w3.org/TR/2001/REC-SVG-20010904/DTD/svg10.dtd">
<svg version="1.0" xmlns="http://www.w3.org/2000/svg"
 width="16.000000pt" height="16.000000pt" viewBox="0 0 16.000000 16.000000"
 preserveAspectRatio="xMidYMid meet">
<metadata>
Created by potrace 1.11, written by Peter Selinger 2001-2013
</metadata>
<g transform="translate(0.000000,16.000000) scale(0.006154,-0.006154)"
fill="#000000" stroke="none">
<path d="M0 2275 l0 -325 160 0 160 0 0 164 0 163 165 -1 165 -2 0 163 0 163
-325 0 -325 0 0 -325z"/>
<path d="M1950 2438 l0 -163 160 1 160 1 0 -164 0 -163 165 0 165 0 0 325 0
325 -325 0 -325 0 0 -162z"/>
<path d="M970 490 l0 -160 325 0 325 0 0 160 0 160 -325 0 -325 0 0 -160z"/>
</g>
</svg>
